<?xml version="1.0" encoding="UTF-8"?>
<!-- Generated by Pixelmator Pro 3.6.18 -->
<svg width="96" height="96" viewBox="0 0 96 96" xmlns="http://www.w3.org/2000/svg">
    <g id="Group">
        <path id="Path" fill="#000000" stroke="none" d="M 9.513861 0.939819 C 6.78041 1.547241 4.074567 3.272888 2.514567 5.398926 C 1.727666 6.461914 1.299701 7.24884 0.733683 8.753601 L 0.333328 9.789001 L 0.333328 47.063354 L 0.333328 84.337708 L 0.664657 85.304077 C 1.755276 88.506897 3.798462 90.881409 6.683771 92.275757 C 9.348196 93.573425 4.709613 93.435364 48.030678 93.476807 L 86.340416 93.504395 L 87.569092 93.18689 C 91.627853 92.110107 94.568382 89.293823 95.962723 85.166016 L 96.280243 84.199646 L 96.321663 47.408508 C 96.349266 10.782959 96.349266 10.61731 96.073166 9.540527 C 94.996346 5.398926 91.807327 2.182251 87.624313 1.022644 C 86.630333 0.746521 86.381836 0.746521 48.444839 0.760315 C 18.915276 0.77417 10.10749 0.815552 9.513861 0.939819 Z M 86.243782 7.027954 C 87.776176 7.386902 89.170509 8.505127 89.874573 9.927063 L 90.20591 10.61731 L 90.247314 15.959961 L 90.288734 21.316467 L 48.237759 21.316467 L 6.186781 21.316467 L 6.228196 16.098022 L 6.269611 10.893433 L 6.656161 10.065125 C 7.30501 8.670776 8.409437 7.676819 9.90041 7.152222 L 10.825364 6.820862 L 48.099709 6.820862 C 80.583603 6.820862 85.484482 6.84845 86.243782 7.027954 Z M 30.705015 35.052734 L 30.705015 42.714661 L 18.459702 42.714661 L 6.200586 42.714661 L 6.200586 35.052734 L 6.200586 27.390808 L 18.459702 27.390808 L 30.705015 27.390808 L 30.705015 35.052734 Z M 60.110329 35.052734 L 60.110329 42.714661 L 48.348198 42.714661 L 36.572269 42.714661 L 36.572269 35.052734 L 36.572269 27.390808 L 48.348198 27.390808 L 60.110329 27.390808 L 60.110329 35.052734 Z M 90.274933 35.052734 L 90.274933 42.714661 L 78.126259 42.714661 L 65.977585 42.714661 L 65.977585 35.052734 L 65.977585 27.390808 L 78.126259 27.390808 L 90.274933 27.390808 L 90.274933 35.052734 Z M 30.635986 56.519958 L 30.635986 64.250977 L 18.418287 64.250977 L 6.200586 64.250977 L 6.200586 56.519958 L 6.200586 48.789001 L 18.418287 48.789001 L 30.635986 48.789001 L 30.635986 56.519958 Z M 60.068909 56.464783 C 60.096519 60.689209 60.082718 64.168152 60.055107 64.19574 C 60.027493 64.223328 54.726257 64.250977 48.279179 64.250977 L 36.572269 64.250977 L 36.572269 56.519958 L 36.572269 48.789001 L 48.306789 48.789001 L 60.041302 48.789001 L 60.068909 56.464783 Z M 90.274933 56.519958 L 90.274933 64.250977 L 78.126259 64.250977 L 65.977585 64.250977 L 65.977585 56.519958 L 65.977585 48.789001 L 78.126259 48.789001 L 90.274933 48.789001 L 90.274933 56.519958 Z M 30.663597 78.760315 C 30.691208 83.467957 30.677406 87.361023 30.649796 87.388672 C 30.622183 87.41626 26.17687 87.443909 20.778994 87.443909 C 13.034215 87.443909 10.81156 87.402466 10.273154 87.25061 C 8.188552 86.698425 6.725189 85.17981 6.33864 83.17804 C 6.255806 82.750061 6.200586 79.878601 6.200586 76.316772 L 6.200586 70.187256 L 18.418287 70.187256 L 30.635986 70.187256 L 30.663597 78.760315 Z M 60.068909 78.760315 C 60.096519 83.467957 60.082718 87.361023 60.055107 87.388672 C 60.027493 87.41626 54.726257 87.443909 48.279179 87.443909 L 36.572269 87.443909 L 36.572269 78.815552 L 36.572269 70.187256 L 48.306789 70.187256 L 60.041302 70.187256 L 60.068909 78.760315 Z M 90.274933 76.579102 C 90.274933 82.460144 90.247314 83.053772 90.012634 83.757874 C 89.529449 85.235046 88.494049 86.353271 87.003075 87.01593 L 86.202362 87.374878 L 76.096878 87.41626 L 65.977585 87.457703 L 65.977585 78.815552 L 65.977585 70.187256 L 78.126259 70.187256 L 90.274933 70.187256 L 90.274933 76.579102 Z"/>
    </g>
</svg>
